PathFileType	4	(X/Y/Z)	C:\Users\Basilio\Documents\Thesis Gigler\squatting_fais\c3dfiles\058\SLS_front_pre1\markers_experimental.trc
DataRate	CameraRate	NumFrames	NumMarkers	Units	OrigDataRate	OrigDataStartFrame	OrigNumFrames
200.000000	200.000000	4	61	mm	200.000000	1053	1204
Frame#	Time	FHD			LBHD			RBHD			C7			T10			CLAV			LSHO			LUUPA			LMUPA			LDUPA			LLEP			LMEP			LUL			LRFIN			RSHO			RUPA1			RMUPA			RDUPA			RLEP			RMEP			RRAD			RUL			RUFIN			LASI			RASI			USACR			LSACR			RSACR			LTHI1			LTHI2			LTHI3			LTHI4			LLFC			LMFC			LTIB1			LTIB2			LTIB3			LTIB4			LLMAL			LMMAL			LHEE			LMT1			LMT2			LMT5			RTHI			RTHI2			RTHI3			RTHI4			RLFC			RMFC			RTIB1			RTIB2			RTIB3			RTIB4			RLMAL			RMMAL			RHEE			RMT1			RMT2			RMT5			LRAD			
		X1	Y1	Z1	X2	Y2	Z2	X3	Y3	Z3	X4	Y4	Z4	X5	Y5	Z5	X6	Y6	Z6	X7	Y7	Z7	X8	Y8	Z8	X9	Y9	Z9	X10	Y10	Z10	X11	Y11	Z11	X12	Y12	Z12	X13	Y13	Z13	X14	Y14	Z14	X15	Y15	Z15	X16	Y16	Z16	X17	Y17	Z17	X18	Y18	Z18	X19	Y19	Z19	X20	Y20	Z20	X21	Y21	Z21	X22	Y22	Z22	X23	Y23	Z23	X24	Y24	Z24	X25	Y25	Z25	X26	Y26	Z26	X27	Y27	Z27	X28	Y28	Z28	X29	Y29	Z29	X30	Y30	Z30	X31	Y31	Z31	X32	Y32	Z32	X33	Y33	Z33	X34	Y34	Z34	X35	Y35	Z35	X36	Y36	Z36	X37	Y37	Z37	X38	Y38	Z38	X39	Y39	Z39	X40	Y40	Z40	X41	Y41	Z41	X42	Y42	Z42	X43	Y43	Z43	X44	Y44	Z44	X45	Y45	Z45	X46	Y46	Z46	X47	Y47	Z47	X48	Y48	Z48	X49	Y49	Z49	X50	Y50	Z50	X51	Y51	Z51	X52	Y52	Z52	X53	Y53	Z53	X54	Y54	Z54	X55	Y55	Z55	X56	Y56	Z56	X57	Y57	Z57	X58	Y58	Z58	X59	Y59	Z59	X60	Y60	Z60	X61	Y61	Z61	

1054	5.265	-282.7657775878907	1820.295532226563	-608.3063964843751	-434.665252685547	1762.00537109375	-684.7462158203126	-268.0791625976563	1828.740966796875	-749.6981811523439	-445.078826904297	1600.321533203125	-696.8552246093751	-446.7715759277345	1297.2177734375	-689.5581665039064	-288.4271850585938	1561.35986328125	-682.7824707031251	-298.4357604980469	1610.845092773438	-838.7089843750002	-152.3188018798828	1523.638671875	-955.6174926757815	-123.2744293212891	1560.73779296875	-936.483093261719	-82.33705902099611	1521.656005859375	-955.7789306640627	-5.199413299560548	1521.516723632813	-945.949890136719	-2.584562063217164	1465.924560546875	-912.1837158203127	264.5033874511719	1549.50390625	-907.7838134765627	357.4818725585938	1546.880859375	-826.2137451171877	-313.9901123046876	1608.408203125	-526.5570068359376	-159.0823211669922	1510.708374023438	-417.2252502441407	-133.9851837158203	1549.0458984375	-438.0983886718751	-89.81186676025392	1517.22509765625	-415.9619140625001	-22.44730186462403	1506.248657226563	-421.5259399414064	-15.29131031036377	1449.954711914063	-474.066864013672	nan	nan	nan	248.0594329833985	1543.67138671875	-423.6547241210939	342.1219482421876	1554.262573242188	-489.7529907226564	-282.0375061035157	1117.793701171875	-849.540222167969	-259.3871765136719	1081.212890625	-612.8912353515626	-460.1959228515626	1176.29248046875	-693.4200439453126	-471.866912841797	1148.743041992188	-724.2091064453126	-459.7594604492189	1140.759887695313	-668.3110961914064	-253.0356903076172	858.8453369140627	-936.653259277344	-203.8831024169922	790.3226318359377	-929.0004882812502	-164.0780792236328	799.606384277344	-898.5170898437502	-216.5314331054688	732.0766601562501	-926.878112792969	-185.447006225586	635.8547363281251	-918.6706542968752	-177.0410614013672	622.7890014648439	-792.0158691406252	-93.16878509521486	522.6849975585939	-881.8353271484377	-124.1064682006836	475.3868103027345	-945.5796508789065	-87.77415466308595	477.3611450195314	-918.1021728515627	-60.7788429260254	399.9348144531251	-897.3702392578127	-53.9065284729004	193.9428710937501	-927.7062988281252	-38.35800933837891	210.4413604736329	-836.2207031250002	-103.6140594482422	138.7824096679688	-879.918640136719	110.2159194946289	190.9869995117188	-851.7718505859377	117.2484588623047	198.7170104980469	-897.4583740234377	79.68232727050783	167.7512969970703	-953.7739868164065	-369.9157409667969	869.1990356445315	-562.1198120117189	-334.4128417968751	813.4686279296877	-562.1221923828126	-301.3844299316407	813.0535888671877	-563.5773315429689	-362.9641418457032	737.1275024414064	-585.6360473632814	-357.0867309570313	557.4953613281251	-616.0469360351564	-322.3026123046876	554.0123901367189	-749.3588867187501	-303.9360961914063	358.7940673828126	-714.1467895507814	-342.2928771972657	276.3428649902344	-655.2920532226564	-305.1968994140626	272.2853698730469	-685.9348754882814	-314.7648010253907	230.2562713623047	-725.0179443359376	-374.1229248046876	118.6608581542969	-692.6577148437501	-342.3171386718751	145.2111511230469	-777.8936157226565	-438.4721679687501	102.2520217895508	-756.4633789062501	-229.5078125000001	59.0757179260254	-769.9936523437502	-221.9411926269532	59.57694244384767	-717.0299072265626	-271.4918518066407	27.55438995361329	-665.7039184570314	257.0096435546876	1525.635986328125	-829.8604125976565	
1055	5.27	-283.1047668457032	1820.195068359375	-608.2670288085939	-434.786590576172	1762.034057617188	-684.7629394531251	-268.2529907226563	1828.751831054688	-749.8087768554689	-445.1514892578126	1600.40625	-696.8876953125001	-446.9100646972657	1297.203247070313	-689.6038818359376	-288.5524902343751	1561.37109375	-682.7559204101564	-298.3131713867188	1611.037963867188	-838.725036621094	-152.5376129150391	1523.66259765625	-955.6834716796877	-123.4429397583008	1560.768432617188	-936.518737792969	-82.47779846191408	1521.733154296875	-955.8403930664065	-5.367656230926515	1521.562744140625	-945.9681396484377	-2.519878387451172	1466.017700195313	-912.301696777344	264.3348693847657	1549.517700195313	-907.8308715820315	357.3257141113282	1546.928466796875	-826.233093261719	-314.0014343261719	1608.415283203125	-526.5223388671876	-159.3170776367188	1510.57666015625	-417.2049560546876	-134.0208129882813	1549.01416015625	-438.0993041992189	-89.95277404785158	1517.169799804688	-415.949676513672	-22.71990394592286	1506.15869140625	-421.5267333984376	-15.35595989227295	1449.945068359375	-474.1140136718751	nan	nan	nan	248.0482635498047	1543.771850585938	-423.6177368164064	341.9011840820313	1554.312255859375	-489.7089233398439	-282.1031494140626	1117.801391601563	-849.4661865234377	-259.4748535156251	1081.237426757813	-612.8372802734376	-460.2857360839845	1176.389282226563	-693.4940185546876	-471.9512634277345	1148.85888671875	-724.3577270507814	-459.9647827148439	1140.734252929688	-668.4472656250001	-252.8983764648438	858.8997192382815	-936.691345214844	-203.8950805664063	790.415466308594	-928.9925537109377	-164.0409240722657	799.6809082031252	-898.4734497070315	-216.4000854492188	732.1262207031251	-926.8951416015627	-185.3616485595703	635.9133300781251	-918.6460571289065	-176.9535675048828	622.8072509765626	-790.9940185546877	-93.0423049926758	522.9269409179689	-881.791198730469	-123.9530639648438	475.5430603027345	-945.4995727539065	-87.51534271240236	477.5209350585939	-918.1021728515627	-60.69104766845705	400.0019531250001	-897.2708129882815	-53.68933868408205	194.0120391845704	-927.7070922851565	-38.13947296142579	210.4673156738282	-836.1446533203127	-103.0072708129883	138.7679901123047	-879.9165649414065	110.3905868530274	191.1455535888672	-851.652282714844	117.4403686523438	198.8443298339844	-897.3175048828127	79.89902496337892	167.5846252441407	-953.6246337890627	-370.0601196289063	869.2337646484377	-562.1726074218751	-334.6694030761719	813.5334472656252	-562.1375732421876	-301.8379516601563	813.184265136719	-563.4743041992189	-363.0935058593751	737.1041259765626	-585.6846923828126	-357.2411804199219	557.4873657226564	-616.0811157226564	-322.3560485839844	554.0543212890626	-749.4199218750001	-303.9992065429688	358.8122558593751	-714.0576782226564	-342.4208374023438	276.3983154296876	-655.2645874023439	-305.2480468750001	272.3529357910157	-685.8971557617189	-314.7519531250001	230.2546386718751	-724.9809570312501	-374.1294250488282	118.666130065918	-692.6591796875001	-342.3259887695313	145.1750640869141	-777.8857421875002	-438.4714660644532	102.239242553711	-756.4595947265626	-229.5136413574219	59.07835388183595	-769.9966430664065	-221.9509277343751	59.58684158325197	-716.9995117187501	-271.4073791503907	27.53661155700684	-665.6674804687501	256.8667602539063	1525.702026367188	-829.8806152343752	
1056	5.275	-283.2456665039063	1820.17919921875	-608.3058471679689	-434.9691467285157	1762.129516601563	-684.6993408203126	-268.2558898925782	1828.71826171875	-749.8203125000001	-445.3006591796876	1600.41552734375	-696.9053955078126	-446.9751281738282	1297.234741210938	-689.6553955078126	-288.6408081054688	1561.4111328125	-682.8203735351564	-298.5874633789063	1610.834594726563	-838.6450195312502	-152.6450347900391	1523.719116210938	-955.7283935546877	-123.5621337890625	1560.852783203125	-936.5526123046877	-82.59839630126955	1521.723266601563	-955.880065917969	-5.518496036529542	1521.613037109375	-945.9995117187502	-2.53180480003357	1466.015258789063	-912.4462890625002	264.2603149414063	1549.573364257813	-907.840270996094	357.2382507324219	1546.968139648438	-826.2722778320315	-314.0607299804688	1608.423217773438	-526.5823364257814	-159.5520477294922	1510.4912109375	-417.1714172363282	-134.1189270019532	1549.056884765625	-438.1071777343751	-90.02996063232423	1517.219482421875	-416.0139465332032	-22.79679298400879	1506.358032226563	-421.515838623047	-15.42371082305909	1449.993041992188	-474.1797180175782	nan	nan	nan	247.8982696533204	1543.783081054688	-423.6235351562501	341.8409118652344	1554.375122070313	-489.6610107421876	-282.0871582031251	1117.842407226563	-849.456481933594	-259.6687316894532	1081.369750976563	-612.7760620117189	-460.4062500000001	1176.443359375	-693.5571289062501	-472.0888671875001	1148.925170898438	-724.4626464843751	-460.1885986328126	1140.785278320313	-668.5833740234376	-252.9086914062501	858.9368896484377	-936.6997070312502	-203.7133941650391	790.4224243164065	-928.9505004882815	-164.1106872558594	799.738952636719	-898.4555664062502	-216.2730712890626	732.1878051757814	-926.8790283203127	-185.2620391845703	635.9471435546876	-918.5914306640627	-176.9120788574219	622.8607177734376	-790.899597167969	-92.94676208496095	522.9393310546876	-881.6728515625002	-123.7774810791016	475.6749267578126	-945.4942626953127	-86.80509185791017	477.8753662109376	-918.3498535156252	-60.08160781860353	400.2144470214845	-897.0735473632815	-53.36354064941408	194.1669006347657	-927.5671997070315	-37.89361953735352	210.6487426757813	-836.0596923828127	-102.8951950073242	138.9781646728516	-879.7742309570315	110.7691879272461	191.3534088134766	-851.6050415039065	117.6754760742188	198.9882354736329	-897.276306152344	80.07882690429689	168.0139312744141	-953.651550292969	-370.4790649414063	869.3605957031252	-562.2048950195314	-335.0741577148438	813.6632080078127	-562.1031494140626	-302.0336914062501	813.231140136719	-563.4287109375001	-363.2624816894532	737.0794067382814	-585.7871093750001	-357.4691467285157	557.5674438476564	-616.1420898437501	-322.2582397460938	554.0669555664064	-749.3964233398439	-303.9947204589844	358.8799743652344	-714.0607910156251	-342.4567260742188	276.4159240722657	-655.3372192382814	-305.3045654296876	272.3708801269532	-685.8836059570314	-314.7733764648438	230.2753143310547	-724.9298095703126	-374.1387023925782	118.6550750732422	-692.6502075195314	-342.2622680664063	145.2127227783203	-777.8737792968752	-438.477996826172	102.2267227172852	-756.4751586914064	-229.4768981933594	59.15313720703126	-769.9766845703127	-221.9490966796876	59.5816993713379	-716.9985351562501	-271.4727172851563	27.51621055603028	-665.6288452148439	256.8395996093751	1525.784545898438	-829.8775024414065	
1057	5.28	-283.3161621093751	1820.203247070313	-608.2360839843751	-435.2830200195314	1762.06787109375	-684.7064208984376	-268.4879760742188	1828.716918945313	-749.8518676757814	-445.3712768554689	1600.465576171875	-696.9553222656251	-447.1207885742189	1297.244384765625	-689.7012329101564	-288.6976013183594	1561.521728515625	-682.8496093750001	-298.7109680175782	1610.894287109375	-838.6652832031252	-152.7213897705078	1523.8037109375	-955.7371215820315	-123.6613388061524	1560.883422851563	-936.542175292969	-82.71827697753908	1521.849853515625	-955.8947753906252	-5.581632137298585	1521.696166992188	-946.0892333984377	-2.692109346389771	1466.328735351563	-912.4677734375002	264.0864562988282	1549.596069335938	-907.9126586914065	357.0847473144532	1547.064208984375	-826.2979736328127	-314.1900939941407	1608.40869140625	-526.6093139648439	-159.6260833740235	1510.555297851563	-417.1553955078126	-134.454574584961	1548.892822265625	-438.0633544921876	-90.29680633544923	1517.032592773438	-415.9358520507814	-22.96589469909668	1506.329467773438	-421.5210266113282	-15.50176143646241	1450.016479492188	-474.2289428710939	nan	nan	nan	247.8706359863282	1543.819458007813	-423.6283264160157	341.7189025878907	1554.389770507813	-489.6534423828126	-282.1302185058594	1117.88330078125	-849.4394531250002	-259.7925720214844	1081.443603515625	-612.7399902343751	-460.6438903808595	1176.431030273438	-693.6232910156251	-472.1431274414064	1148.926879882813	-724.6090698242189	-460.3132934570314	1140.786987304688	-668.7144165039064	-252.8856201171876	858.9448852539065	-936.7015380859377	-203.6538391113282	790.5266113281252	-928.916687011719	-164.1558380126953	799.9586181640627	-898.3677978515627	-216.2511749267579	732.2756958007814	-926.8105468750002	-185.2139892578125	636.0378417968751	-918.573913574219	-176.7751617431641	623.1530761718751	-790.9222412109377	-92.89004516601564	523.0158691406251	-881.6274414062502	-123.5459823608399	475.7875366210939	-945.3960571289065	-86.7756805419922	477.8901672363282	-918.306335449219	-59.96989059448244	400.2761535644532	-896.9434814453127	-53.21526336669923	194.2816772460938	-927.5017700195315	-37.68881225585938	210.7790832519532	-836.0139770507815	-102.6787948608399	139.0685577392578	-879.6939086914065	110.9392166137696	191.4524536132813	-851.488952636719	117.8383178710938	199.2200164794922	-897.2424316406252	80.39332580566408	168.3484191894532	-953.636657714844	-370.8069152832032	869.342712402344	-562.3476562500001	-335.3765258789063	813.6743164062502	-562.1953125000001	-302.1811523437501	813.211120605469	-563.4497070312501	-363.7659301757813	737.0408325195314	-585.8081054687501	-357.6492004394532	557.5987548828126	-616.2039794921876	-322.3889770507813	554.1405639648439	-749.4499511718751	-304.0235900878907	358.9188842773438	-714.0693359375001	-342.5424804687501	276.4328308105469	-655.3151245117189	-305.3063964843751	272.3600463867188	-685.8659667968751	-314.7717285156251	230.2695770263672	-724.9319458007814	-374.1150512695313	118.6705551147461	-692.6590576171876	-342.2520446777344	145.2109069824219	-777.8375244140627	-438.4603881835939	102.260726928711	-756.4608154296876	-229.549545288086	59.19091033935548	-770.0083618164065	-221.9861297607422	59.53943634033205	-716.9935302734376	-271.4020690917969	27.54471015930176	-665.6812133789064	256.7371215820313	1525.874877929688	-829.974792480469	
